<svg id="World_Map" data-name="World Map" xmlns="http://www.w3.org/2000/svg" width="875.497" height="460.87" viewBox="0 0 875.497 460.87">
  <g id="_2477621719920">
    <path id="Path_9" data-name="Path 9" d="M6238.782,222.413c.1,1.9-.108.844,1.348,1.811-3.449.273-5.208,1.118-7.08,1.316-2.957.312-5.031-1.426-8.2.642-1.154.752,1.7.2-1.69.8a22.808,22.808,0,0,1-4.2-.227c-6.17-.3-2.106,1.8-6.773,2.081,1.9.5,1.643.583,2.254,2.153-2.207.049-5.146-.068-7.267.216-.755.1-1.833.068-2.075,1-.584,2.254-.187.045.216,1.12.365.976.172-.466,1.118,2.134-5.5-.113-3.371.046-7.323,1.069s-2.311-2.032-6.5.9c.907,2.515,1.529,1.007,3.036,2.636,2.2,2.382-.9,1.885,2.2,3.766,1.752,1.067,3.026.148,3.484,1.849,1.718,6.39-1.538,7.721-7.893,7.148l2.51-1.251c8.32-3.463-3.349-9.726-5-13.3-1.592-3.439,1.611-1.254-4.13-4.689-1.8-1.075-.958-1.537-3.826-1.175-1.454,4.377-3.711,5.713-1.442,9.435,1.433,2.349-.1.758,1.823,1.723,2.2,1.11,3.3.413,4.386,2.714-1.657.948-8.511-1.6-12.362-2.468-2.576-.582-4.449-.613-7.106-1.057-2.546-.426-3.6-2.513-5.713-1.2,1.935,1.741,5.217.584,5.921,3.143.565,2.061-1.193,1.367-2.147,1.116-2.094-.551-2.711.022-5.006.557a40.33,40.33,0,0,1-4.427.835c-1.539.027-1.367-.065-2.392-.877l-10.5,1.764c-4.729,2.131-2.018,4.967-7.807,2.414.8-2.658.374-.875,2.416-2.456-2.03-1.907-3.709-2.562-7.576-2.3,1.026,2.6,2.574,2.48,3.341,6.851a10.506,10.506,0,0,0-6.624.991c-3.13,1.675-2.583,1.8-1.093,4.179-3.4.134-6.554-1.4-7.976-.863.179,1.544,1.069,1.877,1.842,3.071-5.543.058-5.479-1.5-7.251-5.3-1.01-2.167-.685-.677-2.306-2.374,4.815,0,9.523,3.444,16.235.2.916-3.629-.836-3.989-3.777-4.7-2.606-.632-3.865-1.6-6.4-2.138-2.513-.53-5.919.1-8.088-.959-3.784-1.849-.172-1.787-6.85-1.967-.084-.121-.18-.474-.209-.386l-.972-1.954c-3.386-.633-3.346-.292-5.9-1.336-3.981,2.256-1.2.284-3.947,1.425-2.38.989,1.087.484-1.594.764,1.611-.861.986-.628,1.644-2.2-3.226.37-6.348.478-8.977,2.137-.687.434-.233.357-.982.557-1.893.5-4.336-.821-8.254,1.966l-.81,1.1c-.022.059-.047.245-.062.3l-.045.579c-3.12-.3-1.63-1.114-4.293-.1.8,2.044-1.521,1.006,2.351,1.612-1.969.689-1.75.943-3.112,2.277-3.028,2.96-6.055,7.229-8.225,8.9-.724.557-2.265,1.89-2.977,2.324-1.623.988-.293.086-1.724.606l-5.3,2.95c-1.2.713-2.449,1.331-3.752,2.1a25.99,25.99,0,0,0,1.055,11.176c3.423,3.722,8.743-.714,9.868-1.369,3.6-2.1,2.985-.619,4.282,2.046.057.117.135.267.193.382l3.128,5.477a10.693,10.693,0,0,1-6.377,2.484c.93-2.478.3-.446,1.7-2.484-1.44-1.328-.415-.092-.942-1.835l-.638-2.3c-.962.432-1.426.824-2.274,1.237-3.351,1.63-4.551,1.729-2.355,6.9,1.99,4.688.584,3.565-.138,4.352-.805,1.58-.009.361-3.2.742-8.668,1.035-4.577,2.983-9.814,6.81-1.415,1.034-2.3,1.035-3.561,1.665-2.973,1.479-1.241,2.933-5.766,4.932-2.575,1.137-2.517.619-4.776-.4l-.486,3.031a1.554,1.554,0,0,1-.1.434l-7.878.013c-.136,3.384,2.226,2.925,4.413,3.852,2.631,1.114,1.021.506,2.308,2.5a12.681,12.681,0,0,0,2.212,2.313c.01,3.042-.375,6.85-1.646,9.128a52.717,52.717,0,0,1-11.274-.485c-6.637-.844-5.07-.33-9.947,1.423.622,3.5,1.825,6.4.017,10.645-3.485,8.18.226,2.228-.4,10.315,2.655.055,5.34-.771,6.8.863,1.224,1.367-.4,1.7,2.366,1.955,1.864.172,1.337-.485,3.234-1.052,3.813-1.139,7.44.485,11.278-4.777,3.138-4.3,1.416-.884,1.643-4.971.273-4.947,6.336-5.371,8.578-7.785,2.818-3.033-.657-2.784,1.87-5.319,3.954-2.255,5.123,1.607,8.346.219.944-.406,1.623-1.158,3.334-1.984,2.643-1.276,1.2-.573,3.081-2.107,5.433,1.288,3.893,5.732,10.237,9.649,3.067,1.893,12.231,4.722,9.612,9.974-.759,1.086-.379.753-1.843,1.282-2.79,1.007-5.659-.559-7.819,1.859a72.54,72.54,0,0,0,7.524,3.624c.825-1.763.012-1.489.6-2.868.979-2.289,3.375-.948,5.343-5.973-.649-1.264-2.714-2.493-.823-3.6,1.332-.78.826-.291,1.809.12,1.533.642.037.628,2.616,1.331-.665-3.694-4.063-3.5-6.27-5.816-1.921-2.021,1.133-.519-2.581-1.679-5.6-1.749-2.066-3.594-8.344-7.382-.18-3.981-.677-3.132,1.5-4.914,1.544.514,6.84,5.557,8.557,7.136,2.616,2.407,8.8,4.447,9.562,6.54.563,1.538-.292,3.519.458,5.312.053.128.131.278.19.4,1.194,2.477,2.233,2.416,3.857,4.349l-.439.77c-.045.086-.3.506-.336.6-.361.848-1.047-.18-.032.645.249,3.141,1.087.584,3.1,3.351,1.427,1.966-.9.408,1.307,1.644a6.489,6.489,0,0,0,2.955.513,10.371,10.371,0,0,0,.156-4.486c2.5.038,2.159,1.314,3.095-.462,1.185-2.249-1.789-1.86-3.594-5.173a6.763,6.763,0,0,1-1.293-3.247l2.147,1.481,1.148-1.832a3.185,3.185,0,0,1,.7-1.167c5.267-.352,6.958.5,5.245,5.567,1.123.722.3.189,1.233.628.1.049.309.139.412.187l.4.186c.084.038.271.108.4.179-.659,1.494.238.118-.834.956a4.507,4.507,0,0,1-.686.458c-.086.054-.3.145-.371.186a3.42,3.42,0,0,0-.38.171c1.784,1.143,2.216.078,3.39,1.728.46.647.716,2.8,1.793,3.6,1.521,1.12,1.644.063,4.079,1.286,1.348.676,1.405,2.013,3.708.518,1.586-1.031-.14-2.407,3.044-1.441,3.568,1.084,3.586,3.9,7.927,1.249,2.688-1.64,1.061-1.041,5.025-1.059-.289,4.643.793,6.2-.8,10.594-1.892,5.224-1.4,10.262-8.381,7.9-6.441-2.176-5.145,1.111-11.037.6-4.09-.355-11.854-2.393-15.289-4.406-1.829-1.073-1.233-2.035-4.662-1.745-7.687.65-2.955,5.973-5.466,8.336-3.21,1.3-3.307-.975-6.8-1.95-8.07-2.251-3.571-1.34-6.38-4.365-1.732-1.864-5.479-1.621-7.909-2.079-1.836-.347-5.168-2.234-6.873-3.419.779-4.079,4.725-1.388,1.218-7.676.713-1.837.777-1.184,1.355-2.952-1.412-.529.322.137-.932-.147-.067-.015-.253-.051-.333-.072l-.712-.207c-3.536-1.037-4.03.531-8.631.22l-14.153,1.206c-4.455.706-7.2,2.255-11.266,4.3-2.492,1.25-8,1.1-10.664-.52-.946-.575-.236-.545-1.692-.872l-2.065,3.453c-2.125,4.71-5.935,3.456-8.418,7.587-1.828,3.04-2.1,3.805-2.542,8.079-.319,3.056-2.9,4.888-4.854,6.3-3.96,2.865-4.725-.1-10.836,10.419-1.747,3.007-2.636,3.1-3.643,6.937-.777,2.956-5.288,5.9-3.105,8.82,2.05,2.743,1.937,5.993,1.458,9.865-.645,5.226-.375,7.664-3.679,11.39,2.855,6.362-.108,6.917,3.145,9.744.091.08.225.19.317.27l1.568,1.389c.964,1.045,2.081,3.06,3.03,4.057,1.79,1.878,2.249.772,3.388,3.638.98,2.467.354,2.956,1.727,5.176,1.453,2.349,5.017,4.251,7.252,5.956,8.3,6.331,4.622,7.432,12.973,4.449,5.913-2.113,13.792,1.018,19.507-1.816,4.106-2.035,3.845-4.083,10.637-3.4,5.5.551,4.1,3.759,7.2,7.117l7.632-1.351c4.241,5.509,4.682,3.361,2.9,13.388,0,.024-.9,3.6-1.071,4.1-.512,1.509-1.171,1.764.032,4.387,2.444,5.332,7.6,7.818,9.21,14.07.728,2.833,2.593,5.219,3.025,8.077.525,3.483-.548,1.482-.237,4.377.625,5.834,5.027,5.839-.565,12.282-1.745,2.012-2.17,5.987-2.851,9.027-3.01,13.428,6.679,18,7.233,25.536.343,4.657,1.5,15.089,4.1,19.005l3.955,7.24c2.09,4.322,2.806,2.875,2.209,8.183-.367,3.252,2.219,5.065,4.316,7.009,1.427-.205,5.545-1.4,7.278-1.937,6.5-2.009,15.154,2.119,24.65-11.369,1.3-1.84,2.061-3.848,3.438-5.417,3.674-4.184,5.975-5.923,4.626-12.514,2.451-2,6.771-3.25,8.177-5.4,2.133-4.875-.687-10.831-1.683-15.3a16.344,16.344,0,0,0,6.614-5.741c2.048-2.739,5.623-2.882,8.256-4.65,6.472-4.345,2.7-13.636,4.037-21.6-.47-2.528-4.019-2.249-3.16-10.845.5-4.979-4.024-2.951.753-10.858,1.066-1.766,1.376-3.487,2.527-5.177l10.274-12.719c5.61-5.837,11.153-7.421,14.553-16.232,5.18-13.422,8.22-11.69,7.408-22a22.876,22.876,0,0,0-4.3,1.456c-2.023.7-3.257.475-5.608.935l-10.237,2.677c-4.106-2.213-3.814-3.725-3.991-7.746-2.083-1.543-3.321-3.534-5.306-5.258-11.9-10.337-3.933-2.929-9.284-12.575-2.016-3.632-3.421-1.543-4.567-6.466-.7-3-.627-6.525-2.053-8.7-.912-1.394-1.786-1.551-2.7-2.681-1.814-2.256-.513-2.191-.691-4.194-.3-3.367-6.961-10.609-8-14.267,2.23,1.579.411,1.208,3.251,1.54l1.154.114c.1.031.265.092.358.133,3.881,1.695,6.063,7.816,8.046,11.367.976,1.75,1.584,1.713,2.942,3.011,2.662,2.548.823,5.175,2.656,8.523.806,1.469,3.334,4.017,4.814,6.452,2.206,3.626,5.119,6.365,6.3,9.815l.545,1.639a22.644,22.644,0,0,1,.189,2.855c.266,2.623,1.985,4.783,2.489,8.58,5.809.186,3.466-.1,6.56-1.661,1.791-.905,4.551-1.059,6.5-1.858a29.4,29.4,0,0,0,5.326-2.266c2.18-1.38,3.17-1.637,5.338-2.885,2.623-1.511,1.267-2.441,3.654-4.1,4.63-3.218,4.106.736,10.152-5.767,2.325-2.5,2.174-1.682,4.761-3.573.028-4.222-.244-3.754,2.454-5.714,1.99-1.445,2.916-3.01,2.937-6.288a43.085,43.085,0,0,1-7.075-4.716c-3.372-2.618-3.71-2.559-4.543-7.279-6.167,3.07-2.682,8.294-13.755,6.118-.344-2.887.728-3.288-.754-5.912a2.55,2.55,0,0,0-2.015,2.769c-2.089-2.948-1.565-5.137-4.559-7.826-1.83-1.642-4.4-4.935-4.363-8.348,8.2-3.994,6.187,4.435,10.722,6.735l6.981,3c5.265,2.735,6.17,0,8.585-.149,3.959,5.113-1.786,4.71,11.744,6.316,3.559.424,4.435.885,8.538.167,3.058-.534,5.98-.043,9.238-.167l3.481,4.252c2.652,2.863,2.053-.676,3.911,4.251l4.819-.5c-1.3,2.364-1.612.728-3.767,2.075.964,2.771,5.561,7.564,8.71,4.794,2.515-2.212.227-1.618,1.738-4.048,1.2,1.854,1.2,4.1,1.406,6.887a46.457,46.457,0,0,0,1.369,6.526c1.614,7.483,4.894,11.8,7,18.711.792,2.6,4.09,6.834,5.512,11.508.925,3.042,3.074,6.807,5.508,3.6l.925-1.474c.077-.109.185-.243.264-.349l2.519-3.956c2.426-3.168.525-2.277,1.175-5.965.322-1.83.986-1.417.914-4.311-.088-3.516-1.685-4.183-.835-8.564,1.043-.7,1.828-.918,3-1.636.178-.109,1.3-.818,1.449-.943,1.944-1.614.99-1.986,3.171-3.879,2.963-2.572,4.275-5.874,7.687-7.745,3.933-2.156,1.825-3.453,3.755-6.2,1.3-1.078,7.7-.618,10.524-2.522.1-.065.237-.18.33-.248.949-.7.26-.83,1.343-1.148a25.177,25.177,0,0,0,2.718,6.179c1.9,2.6,1.941,3.211,5.051,3.793-.358,4.829.552,1.371,2.531,5.167,1.456,2.794.2,4.6.276,7.674l4.379,1.14c1.13-2.1,2.507-2.9,4.188-4.418,1.257,2.219.946.816,1.645,2.819.357,1.024.733,2.963,1.086,4.133,2.545,8.407,3.592,4.57,3.612,16.414.02,11.23,2.975,6.421,5.591,13.39,1.717,4.573,1.774,10.632,6.2,13.922,2.326,1.731,3.5,3.448,7.222,3.29-.4-4.9-2.628-3.127-2.753-8.155-.263-10.6-7.99-9.4-9.631-12.938-.668-1.443-.387-2.495-1.172-4.144-1.728-3.64-1.271-.973-2.9-3.017-.042-.573,1.7-13.322,1.727-13.376,3.759-.384.86.926,3.991,2.492,2.17,1.083,2.145.487,3.8,2.484,1.033,1.244,1.48,2.9,2.608,3.885l2.316,1.3c.91.433,1.194.618,2.35,1.145l.224,5.17a7.75,7.75,0,0,0,5.76-6.225c6.015-.8,8.915-4.723,6.523-11.469-3.638-10.26-4.215-6.553-12.251-16.693-2.065-2.606.865-8.038,3.14-9.286a8.063,8.063,0,0,1,3.369-1.1c3.362-.158,3.292.9,4.29,4.468-1.8,1.791-5.355,4.3-1.845,6.471,3.418,2.115,5.34-1.982,5.542-5.29-2.706-1.791-1.854.439-2.339-4.369l8.9-3.529c.1-.036.271-.08.365-.109l4.822-1.667c3.141-.77,1.218.225,3-1.288,2.835-2.4,6.823-5.3,7.4-9.179.712-4.791,3.484-8.051,3.473-11.991-.009-3.1-.489-3.473-4.386-3.6,1.1-.591,1.037-.924,2.471-1.671l-1-2.82c-.041-.151-.092-.539-.139-.678-.3-.9.16-.173-.435-1l-6.339-6.67c-3.4-3.889-5.571-2.813-1.658-7.812,1.227-1.569-.192-.4,1.87-1.717,2.373-1.51.849.7,2.072-1.532-1.014-1.288-2.03-1.248-4.228-1.845-4.4-1.192-1.653.5-4.313,1.2s-1.709-.979-3.868-2.292c-2.471-1.5-2.783.194-3.737-2.963.864-.663.025-.281,1.372-.67.341-.1,1.536-.224,1.974-.277.574-2.817,2.071-4.335,3.813-5.934l2.6.8c-.03,3.139-.889,3.573.416,6.446,5.4-2.343,1.49-4.6,10.343-2.438,2.215,8.031-.851,4.145,6.324,6.1,1.641,4.344-1.443-.068,1.907,5.093,1.364,2.1.4.684.964,3.181a7,7,0,0,0,1.716,3.326c1.838-.744,1.082-.728,2.844-1.449a38.824,38.824,0,0,1,3.834-.983c.207-5.582-3.385-8.81-7.186-12.1-1.63-1.412-2.625-1.389-3.741-2.869,1.743-3.96,1.743-1.165,2.493-6.44a12.076,12.076,0,0,1,2.937-6.21c3.76.934,6.049,2.682,7.973-1.835,1.992-4.678,4.328-15.054,2.032-19.062-1.562-2.726-3.77-4.879-3.8-8.518,6.98,2.253,10.605,14.859,15.359,19.849,1.532-.747-.417.026,1.2-1.016l2.256-1.258c-5.137-3.045-5.618-3.181-7.333-8.735,3.156.357,2.535,1.162,5.035,1.636-1.88-2.834-7.361-6.884-10.338-9.138s-2.223-3.134-4.419-5.584c-1.139-1.271-4.405-4.037-5.88-4.158,1.185,2.5.9-1.3,1.758,2.884-4.238.106-7.779-2.921-9.687-2.622-3.84.6.741-.088-2.421,1.832-3.03-2.762-6.383-2.084-8.623-4.17.406-1.912.513-1.339,1.265-2.658,1.261-2.215.462-.4,1.139-3.077,1.862-7.37,2.3-8.868,7.975-8.435,2.476.189,6.123-.394,8.011.684,1.417-.4,3.914-3.4,9.252-.176.669.4.414.56,1.645,1.043a37.13,37.13,0,0,0,6.424-1.47l-3.465-1.216.4-5.957,7.42-.178a6.3,6.3,0,0,0,3.394,3.259c1.422-1.31.567-.863,1.6-2.059,1.213-1.4.42-.46,1.867-1.515-1.563-1.1-1.187-.42-1.887-2.581,2.506-.009,1.992-.045,5.043,4.849-1.7,3.546-2.061,4.246-2.08,8.856l-2.454,1.553c3.457,7.633-.625,4.225,9.078,12.674a58.1,58.1,0,0,1,5.579,5.011c1.26,1.415,2.322,2.987,3.991,3.786l1.966.243c.726-2.161.122-1.524.2-3.811.159-5.056-.368-.1,1.1-3.336-1.728-1.269-1.775-1.067-2.371-3.474l3.039-1.224c-.857-2.074-1.027-.708-2.887-2.566.465-2.5.9-.455.967-2.687-2.406-1.223-4.536-3.43-6.419-4.232-1.906-.812-2.149-.086-3.125-2.25-1.237-2.741.447-1.8-1.633-3.523l.963-.595c.687-.4.875-.438,1.293-.712l1.517-1.443,2.265.627a4.113,4.113,0,0,1,3.595-1.352c1.635.12,2.982.991,4.768,1.437l.55-.659c.076-.092.441-.513.538-.644,2.749-3.721-.622-2.17,3.739-4.48.822-.435,2.793-1.821,3.268-1.951l4.086-.9-8.484-4.442c.265-1.615-.193-3.543.435-4.446,3.939,1.127,4.271.15,8.83,2.174a40.586,40.586,0,0,0,9.473,2.039,1.417,1.417,0,0,0,.042-.39l.24-3.145a4.359,4.359,0,0,0,.382-1.625,38.821,38.821,0,0,0-14.859-3.182c-1.626-.079-11.568-3.34-14.385-4.189a110.7,110.7,0,0,0-15.091-3.29c-4.329-.35-9.052-.192-13.016-1.146-3.659-.88-1.346-.491-2.784-.2l1.849,2.827a5.79,5.79,0,0,1-2.832-.562c-2.306-.994-.134-.3-1.7-1.206-2.813-1.632-2.65-.144-4.187.3-1.57.454-9.8.075-12.18-.01-3.6-.13-4.948-2.014-9.437-2.437-3.958-.371-6.964-.791-11.244-.881-11.122-.233-8.909-1.741-14.37-3.333-2.017-.589-3.959.065-6.069-.5-1.2-.322-2.049-1.057-4.283-1.54-1.977-.427-3.883-.371-5.93-.719-2.773-.474-6.863-3.286-10.008-1.067l4.548.791c-.432,1.252-.7,1.231-1.521,2.176,1.574,1.067.954.23,2.243,1.744-4.1.806-10.311,1.308-14.242-.333-1.023,1.326-.525.568-.19,2.641-5.475.438-6.828-3.017-10.817-5.351-3.809-2.23-9.385-2.191-13.745-2.984-.707.995-.18.01-.485,1.191-.379,1.465.486-.537-.106,1.075-2.106.141-6.051.371-8.029-.163-3.327-.9-.651-2.228-6.728-2.123-3.537.06-6.877.691-10.431.257-1.621-.2-3.094-1.254-4.747.095-.646.526-2.294,1.993-3.94,1l7.143-5.313c-2.529-3.786-13.042-2.4-18.817-4.145l-4.234-.993c.987-1.446.843.77.189-.92-2.134-.206-5.32-.209-6.78,1.086Zm-164.787,47.48c1.4.987,3.186,1.683,4.616,2.73-1.579,4.313-2.125,2.969-5.318,5.051a16.547,16.547,0,0,0,.153,3.228c.349,1.729.67.893.682,2.424-4.321,3.214-3.927-.322-7.459,4.307l-3.562-.4c-.8,1.016-.985,1.951-1.891,3.137-1.865-.281-2.654-1.346-4.136-.4,2.848,2.287,1.831,1.76,5.2.955,2.862-.685,3.325.907,6.144.783,2.565-.113,3.992-1.429,5.68-2.022,4.317-1.518,4.685.883,5.549,1.309,2.635-1.083.538-1.084,4.381-2.512l.807-.286c-.494-4.76-2.04-4.611,1.628-8.422,3.843.708,1.583,1.7,4.99,2.027,2.335-4.095-5.711-5.481.331-7.542a14.856,14.856,0,0,1,3.78-.4c4.068.1,4.385,1.114,7.347-1.857-8.079-3.877-19.375,8.746-19.815-8.716,1.611-1.149,2.843-1.795,4.53-3.139,4.834-3.846,3.667-2.419,3.781-4.427-1.626-1.033-4.458-1.585-6.437-.531-3.863,2.058.4,3.242-3.248,5.582-4.012,2.571-8.411,2.159-7.741,9.119Zm31.755,60.813c2.158,3.281,2.031,4.76,8.162,4.591,4.979-.136,5.372-5.912,15.137-1.529,5.067,2.274,11.583,3.708,15.486-.11.023-3.258-1.365-3.916-3.627-5.146-1.877-1.019-9.285-6.425-11.75-6.657-1.941-.184-4.322,1.764-7.58,2.114-2.307-3.282-.294-1.1-3.288-3.3l1.093-.949c.775-.766.607-.278,1.134-1.285-7.529-.4-2.84-.523-6.614-1.453l-2.973,3.061c-.837,1.324-.041.921-1.648,3.082-1.7,2.281-.629.562-1.608,3.766-.512,1.672-1.1,2.131-1.923,3.815Zm52.006-7.085c4.419,4.607,1.391,4.122,5.029,7.8a23.107,23.107,0,0,1,3.205,3.277c2.177,2.844,1.309,1.441,3.886,3.1l-2.088,3.056c-.063.18-.236.74-.3.916-1.982,5.785,1.728,5.441,4.392,7.153,1.322.85.9.995,2.583,1.5,2.574.778,4.734-.308,7.17-.457.081-2.938-.221-6.006-1.937-7.733-.086-.086-.229-.19-.316-.275l-.914-.868c-2.953-3.069-1.533-3.093-2.221-5.387-.435-1.45-.854-1.247-1.5-3.321-.779-2.5.14-1.918-1.891-3.335-2.9-2.023-4.563-2.059-5.842-4.833,2.67-2.062,1,1.411,3.254-3.795,1.931-.354,2.4-.064,3.708-.929.095-5.93-4.409-4.31-8.565-2.849-3.213,1.128-1.7,1.19-4.314,2.815-3.257,2.026-1.588.633-3.345,4.166Z" transform="translate(-5608.799 -207.719)" fill="#dcdcdc" fill-rule="evenodd"/>
    <path id="Path_10" data-name="Path 10" d="M156.325,354.988c3.542,1.683,1.052.274,3.41,2.73,3.46-.579,10.252-5,13.354-3.42l-2.343,1.274c-.141.132-.277.333-.391.451a2.52,2.52,0,0,0-.385.484l4.789,0c-1.521,1.012-2.628.621-4.267,1.181l-.954.46a2.015,2.015,0,0,0-.454.279l3.053.78c3.136,0,6.858-.632,8.787.925-3.523.495-12.765-1.811-13.856,1.837l5.064,1.272.595,2.42c4.793-.171,8.015-1.164,11.943-1.449l-1.15.81c-1.722,1.2-1.745,2.267-2.33,4.264-3.6-2.155-1.035-2.439-6.671-1.924a38.547,38.547,0,0,1-8.36-.06l3.956-1.788c-1.035-3-3.915-1.151-8.051-2.3-5.718-1.59-2.753-2.264-9.412-1.17l-.245-.605-.1-.285c-.181-.507-.087-.435-.245-.718l-4.095,1.813-1.219-3.015c-2.529.869-.883,1.013-4.7,1.231l-10.6,1.921c-2.017.021-1.941-1.154-5.6-.028-2.4.74-2.349,1.865-4.882,1.295-.6-.135-9.806-4.173-15.55-4.126-13.8.111-5.858.28-13.484-1.266-8.613-1.746-7.176-.788-17.4,1.172-9.315,1.785-4.441,1.273-10.507,3.043-3.383.985-8.028,1.858-11.448,2.815.593,1.477,2.242,4.947,1.061,6.239-1.013.578,1.445.742-1.866.423-2.559-.247-2.777-1.473-6.15-.6-2.545.66-4.81,1.626-8.115,1.936.054,2.589-.284,1.664-.665,3.958l9.5.5c-1.767,3.951-10.443,2.761-14.22,4.8-5.117,2.758-5.97.628-8.97,5.71l-.74,1.079c-.059.105-.165.241-.217.35-.5,1.064-.357.49-.38,2.156,2.142.255,3.225-.56,5.135-1-.954,1.648-3.89,3.347-4.58,4.785,2.108,1.469,2.733.308,4.523-.9,3.637.731,2.087,1.02,5.509,1.3l-.784.694c-4.734,3.745-8.849,4.534-14.64,6.736l-8.887,2.459a22.319,22.319,0,0,1-4.144,1.186,7.939,7.939,0,0,0-3.927,1.523c1.869.707,4.577-.344,6.628-.9,6.934-1.872,3.63-.488,6.893-.125.708.079,1.4-.1,1.538-.441.328-.8-.585-.879-1.43-1.673,5.343-.261,7.75-2.06,12.486-3.466a19.088,19.088,0,0,0,4.362-1.564c3.926-1.935,7.614-2.726,11.62-4.357,4.365-1.777.582.148,2.766-3.079,2.253-.534,2.644-.229,4.3-1.112,4.506-2.41,3.658-3.9,11.514-4.62-2.163,2.206-6.129,2.23-8.481,4.12l-2.443,2.634c2.364-.3,1.985-.6,3.885-1.112l8.145-1.891c2.623-1.052,1.043-1.1,2.879-2.465,4.5-.129,4.092,1.9,7.7,2.463a90.86,90.86,0,0,0,9.42.648c.053,1.132-.535-1.817-.454,1.082.049,1.775-.411-.172.732,1.95,2.514,4.67-1.242,4.244.156,8.219l.747,4.621c3.129,1.4,2.885-2.445,4.74,1.189-.013.018-.852,1.06-1.021,1.2-.662.556-.763.34-1.692,1.035-.4,3.641,1.064,4.537.557,8.857.147.123.4.1.463.343.336,1.227,1.032.619,1.305,1.1l-4.893.777c.173,1.756.329,1.719,1.324,3.437a24.6,24.6,0,0,0,2.334,3.2l-2.677,8.866c-.3.482-2.778,2.306-3.388,2.956L74.76,447.62c-1.36,1.982-.98,2.642-1.949,4.625-3.482,7.12-3.316,2.656-2.9,15.394.357,10.863.937,6.431,6.928,13.253,2.342,2.667.538,8.591,2,11.514.607,1.215,1.88,2.79,2.155,4.372.582,3.354-1.666,2.663-2.322,4.532,3.335,4.178,5.992.974,5.645,7.278-.153,2.8,2.358,4.212,3.931,6.287,1.691,2.233-.835,1,1.945,1.943,1.62-5.728-1.04-2.979-1.829-6.692-.949-4.464.227-3.022-1.971-7.483l-2.707-8.951a8.7,8.7,0,0,1-.451-1.839,29.5,29.5,0,0,1-.311-5.333l4.344,1.676a26.16,26.16,0,0,1-.522,8.39c2.3,1.072,1.05.319,2.508,1.958l3.853,5.641c.622,1.3.058,1.92.01,3.529,4.531,2.577,1.852,1.159,4.567,4.878,1.15,1.575,2.942,3.922,3.587,5.93,1.7,5.291-.188,4.542-.526,7.7-.321,3.006,1.973,3.624,4,5.27a15.8,15.8,0,0,0,2.548,2.114c1.656.888,1.83.4,3.433,1.359,3.354,2.015,7,4.785,12.346,6.531,7.178,2.344,6.848-5.254,13.223,2.708,2.12,2.649,1.927,3.192,5.606,4.076,2.591.622,4.067,1.65,6.822,2.411,3.451.954.969-.648,3.089,1.662,5.86,6.38,3.43,7.414,4.744,9.487,1.142,1.8-.068.5,1.291.651,1.932.213,1.056-.988,2.9,2.04,2.688,4.4,2.02,1.948,6.2,3.505,1.888.7,3.226,4.543,5.437,2.728.089-.079.154-.39.167-.315L174.2,566.6c1.739-1.351-.314-.383,2.07-1.077,2.252,1.651,1.515,1.45,2.292,4.194.512,1.809,2.131,2.826,2.3,4.829.137,1.644-.456,3.719-.241,6.432.454,5.72-2.485,4.92-4.139,8.618-1.491,3.333-3.765,4.083-5.587,8.424-3.007,7.167-.109,5.427,1.236,8.976-2.243,3.434-6.545,5.647.708,12.879A27.387,27.387,0,0,1,175.758,624c2.287,3.664,4.2,9.135,6.648,12.812.67,1.006,2.281,3.456,2.757,4.39,2.4,4.728-.881,2.9,4.636,8.338,2.258,2.227,5.747,3.391,8.74,4.891,2.388,1.2,1.9,1.148,3.578,2.877,4.992,5.134,6.257,2.93,5.879,14.046l.086,27c.365,2.811-.171,4.22,1.327,7.772,1.254,2.973,1.186,5.263,1.132,8.937-.046,3.086-.6,5.514-.739,8.837-.269,6.616.883,4.28,2.179,8.069l.9,8.553c.39,2.247.1,4.793,2.94,5.677.846-1.971-.2-1.786-.263-3.778-.006-.18.04-.707.057-.852l.206-.762c.139.081.316.092.364.318l.868,1.124c.008.016.492,1.859.507,1.939.873,4.263,2.373,8.114,2.2,12.033-.231-.155-1.046-.8-1.195-.88a9.333,9.333,0,0,0-2.426-.944c.106,2.991.292,3.515,3.686,3.924l.27,3.338c-2.626,1.416-1.051-.629-2.035,1.795l2.614,4.724c1.994,4.289.672,1.57,3.135,1.45l.178,2.875c1.98-.205,1.07-.33,2.85.071.554,3.265-.885.628.888,3.232,1.733,2.545,1.076.514.04,2.836,2.887,1.053,5.092,2.97,7.976,3.993,2.209.783,4.186,1.974,6.883,2.456,1.918.342,3.114,2.076,5.335,2.144,1.919.06,1.68-.718,3.2-1.457,2.018-.982,2.4-.22,3.887-1.069-2.8-2.194-6.766-2.14-9.655-4.794-2-1.838-1.525-3.175-3.034-4.634-5.92-5.723-1.9-3.15-1.426-9,.308-3.836,1.7-1.251,2.477-4.239,1.019-3.93-3.913-3.521-6.656-6.266a4.573,4.573,0,0,1,1.1-2.749l2.8-1.974c.092-2.885-.492-2.5-.571-4.724.935-.907,3-1.952,2.941-2.952-1.263-2.569-1.295-1.133-2.992-1.4-2.2-.352-1.908-1.112-2.157-3.764l6.549.28a6.228,6.228,0,0,0,.128-4.283c-.464-2.409-.184-1.932-1.48-3.148,3.826.208,6.422.094,9.558-.993,3.023-1.048,4.042-3.106,4.253-6.761-.133-.547-1.571-1.521-2.639-4.109-.952-2.307-2.051-1.6-3.343-3.773,2.918.228,7.8,2.9,10.384,1.787a25.9,25.9,0,0,0,4.91-7.419l.8-4.271c.205-1.845.93-2.228,1.781-4.208l2.187.148c1.01-3.894,2.806-5.3,3.557-8.081.709-2.615-4.273-10.464,7.446-14.831,4.623-1.724,4.36-2.241,9.959-2.617,1.2-2.2.856-1.2,2.023-2.575,2.065-2.429.6-1.323,1.526-3.93,1.087-3.074,2.707-2.94,2.866-7.5.145-4.191,1.317-6.046,1.29-9.445-.021-2.613-1.556-9.584.827-11.085,1.833-1.156,2.465-2.913,3.29-4.91,1.474-3.575,2.4-2.929,4.386-5.691,2.385-3.321,4.979-10.721,1.3-15.3-1.8-2.243-4.023-1.272-6.414-3.028-2.078-1.526-3.019-3.021-5.3-4.685-3.846-2.8-6.665-1.273-11.525-2.8-2.74-.86-1.247-.189-4.064.013-2.251-3.437-.4-2.59-4.454-4.432-3.1-1.411-3.878-2.241-7.605-1.772-1.07,1.689-2.09,4.106-3.873,3.324,2.623-1.261,2.5-1.182,2.615-4.955-5.6-1.542-4.911-4.194-6.777-10.387-1.263-4.2-2.761-7.755-7.745-9.94-3.4-1.489-3.689-1.25-7.8-1.145-3.833.1-3.818-.79-6.112-2.717-4.57-3.841-.43-6.424-10.2-6.29.938-1.1,1.877-1.639,1.349-2.96-.046-.113-.164-.343-.212-.476-.855-2.406.574-.515.46-4.57-2.437.533-1.031.341-2.216,1.29-1.578,1.261-.446.123-1.922,1.843-1.067-1.572-.377-.342-.253-1.625.343-3.56.912,1.411.253-.974a13.121,13.121,0,0,0-4.572.066c-2.619.806-.43,1.574-3.68,1.691-2.406.087-1.919-.732-3.7-1.2-1.734-.457-3.309-.059-5.173.062-1.655-2.37.375-1.4-2.466-3.012-1.52-.861-.378.1-1.9-1.032-1.594-1.19.538-.181-1.539-1.391-1.551,2.7.518,1.131-2.1,2.752-.7.435-2.3,1.073-3.175,1.481.39-3.278,1.177-1.116,1.444-5.135-3.387.7-.206-.328-2.984,1.268-4.7,2.7-6.4,2.316-8.791,3.57-1.554.813-1.612,1.843-2.053,3.236-.532,1.683.088.5-.692,1.7-1.045,1.61-2.585,2.634-3.495,4.417-1.665-1.95-4.142-5.371-8.07-4.344s-4.622,4.409-8.515.022c-6.564-7.395-.98-11.022-.692-19.545-5.239-4.152-7.18-2.861-16.035-2.225.855-2.929.024-.01,1.092-2.363,1.15-2.529,1.291-5.224,3-7.446,1.894-2.46.43-2.737,1.852-4.781.908-1.307,2.023-1,1.952-3.168-.115-3.51-4.541-2.238-6.543-1.835-6.741,1.355-3.372,4.573-7.154,8.111-1.909,1.787-5.688,2.139-8.5,2.647-3.141.57-1.33.4-2.927-.375-.048-.023-.913-.516-1.158-.643-1.767-.925-2.067-.825-2.81-3.008-1.3-3.811-3.454-7.691-2.338-12.242,1.108-4.513,3.869-6.529,3.838-11.678-.031-4.943,1.766-5.633,6.121-7.786,4.026-1.992,5.164-4.748,9.924-3.535l5.777,1.879c3.645.3.677-.465,2.315-.457,1.106,0-.191.476,2.2.988-.437-3.989-1.067-4.685,4.378-4.443,4.64.205,4.237-1.079,7.528,2.123l4.351-1.087c2.09,4.855,1.084,8.627,2.981,13.326.179.442.69,1.788.858,2.121,1.021,2.021-.7.525,1.258,1.733,2.41.506,3.357-3.363,3.432-5.391a85.148,85.148,0,0,0-.137-9.337c-1-8.633.346-7.94,6.066-12.023,1.747-1.247,2.6-2.727,5.123-3.771,2.683-1.111,1.056-.3,3.04-1.643,6.13-4.166,5.667-2.916,6.614-10.145.176-1.346.585-1.818.777-3.827,1.075.893.951,1.346,2.4,1.858,1.266-2,1.511-1.7,1.544-5,1.453.793,2.471-.09,3.786-1.415,2.261-2.273.245-2.125,3.435-3.133,2.777-.876,2.264-.092,4.717-1.737,3.271-2.192,2.667-.538,5.258-1.828,0,0-.538-3.125.791-5.051,2.149-3.112,8.01-3.423,11.3-5.259a14.15,14.15,0,0,1,6.716-2.007c-1.154.916-2.128,1.21-3.21,1.977-3.5,2.481-.954,3.359-.9,3.412,1.681,1.56,3.358-2.137,9.818-3.473,5.195-1.073,3.782-1.82,7.119-3.443,2.3-1.116,1.026.8,2.509-1.485-1.143-1.2-1.024-1.7-3.026-.893-1.779.722-.934,1.512-2.782,2.022-1.693-1.159-1.22.271-.4-2.412l-4.021-.854c-3.683-2.531,2.471.6-.934-.783-1.342,3.118.337,1.789,2.278,2.92-.38.315,1.135,1.252-1.944.353a7.91,7.91,0,0,1-1.745-1.211c-.223-3-.141-2.31.721-4.792l-3.547-.163c3.44-1.8,5.606-.046,7.119-3.634-5.84-3.261-12.63,1.785-16.419,3.309L231.37,429.4c5.53-.1,2.688.2,6.326-1.771,1.268-.684,1.669-.6,2.854-1.338,2.408-1.5,3.31-2.916,6.6-2.666,4.956.378,5.385,4.9,9.188,3.3-.523-1.318-2.109-1.7-3.031-3.173,4.28-.044,6.4,1.551,9.819-.853,2.816-1.982,3.789-4.008,8.322-3.658-.539,1.507-1.383,2.2-2.637,3.408l-4.969,5.064a6.451,6.451,0,0,0-2.193,4.753c3.069.714,5.065-.485,7.913-.817l.586,2.984,2.925-1.306c.825.934,1.311,1.9,2.9,1.742,2.923-.292,3.3-3.228,2.717-5.576-.724-2.9-.876.179-.333-3.615a8.655,8.655,0,0,1-5.073-2.045c-.092-.073-.23-.19-.319-.261l-.689-.522c-.074-.055-.251-.162-.364-.259,3.061-3.531,2.457.433,3.542-5.105.393-2.01,1.711-3.325,1.68-5.523a3.17,3.17,0,0,0-2.346-.492l-1.606-.892c-.107-.071-.311-.216-.4-.277a1.91,1.91,0,0,0-.422-.286c-1.123,1.016-4.275,2.442-5.586,1.946,2.228-1.66,6.151-1.461,8.079-3.542-1.836-1.2-4.387-1.609-5.924-2.988-3.755-3.371.64-1.943-1.231-8.553l-.394-1.449c-.319-1.814-.464-4.5-1.29-5.783-3.427,1.755-3.224,3.169-5.481,4.99-2.743,2.214-5.909.921-9.435.969,1.528-3.02.937.065,1.727-3.195.607-2.508.15-1.628,1.179-4.064l-2.611-1.359c-.8-.763.137-.919-1.567-2.513-2.562-1-3.518-.064-6.076-.549-3.02-.57-4.412-2.741-6.526,1.01a6.309,6.309,0,0,1-4.663,3.637c2.541,1.012,1.469-.7,1.646,2.361-1.81,1.832-4.518,2.983-5.349,4.5l2.808,2.225c-.527,5-9.381,7.79-13.186,10.456-2.169,2.814-.349,11.323-8.556,11.312l-.881-4.4c.358-2.035,1.047-.529,2.161-.529l1.245-.167c-1.116-2.705.537-.437-2.388-1.771l2.17-5.982-7.027.195c-3.778-4.194-7.327-7.569-13.792-6.516l1.5-4.8-3.147-1.2c2.332-4.816,8.94-8.729,14.582-10.971,1.092-.434,3.461-1.064,4.264-1.5,2.142-1.167.584-1.733,3.67-2.875,2.714-1,2.153.326,5.3-1.141a37.722,37.722,0,0,1,4.456-2.114c-1.16-2.488,1.143-.842-2.542-1.9l6.329-.755c-.893,1.727-5.379,4.858-7.272,6.5l2.254.911c2.082.866,3.55-.108,5.677-.951,4.263-1.687,4.137,2.257,9.21-.074-.437-1.025-1.65-1.012-3.061-3.081-1.28-1.874-1.651-1.269-4.509-1.99-.42-1.839-.585-1.449-.893-2.952,3.291,0,2.82.581,4.545,2.3.091-.123.184-.5.23-.4l1.247-1.208c4.205-2.009,3.288,1.374,7.613-5.3,1.15-1.774,3.418-1.972,4.087-4.076l.4-1.321c4.179.3,1.445,1.192,5.605.221-1.075,1.715-1.268,1.034-1.907,2.369,3.186-.341,1.66-.993,4.8-1.858.627,6.94-2.948,2.1-3.154,6.78,2.412.814,7.9-1.647,10.339-2.7-.477,2.716-.922,3.087-3.742,4.087-1.092.386-1.729.275-2.527,1.026-1.15,1.081.129-.686-.665,1.087-.072.159-.216.7-.262.852-.035.109-.087.335-.113.425a1.936,1.936,0,0,1-.108.422c-6.4.574-7.149-1.277-11.343,2.481,3.033,2.927,4.8.348,8.913,1.034.193.032.356.087.527.123s.372.117.5.15c1.5.377,2.589,4.188,3.441,5.423,3.953-.955,4.468,1.8,9.969,1.788-.389-3.674-.783-1.367-2.255-4.648a8.893,8.893,0,0,1,3.465,1.208l2.47,1.443c.112.068.3.189.452.279.75-3.122,2.393-1.935,2.233-5-.213-4.061-1.8-.551-2.546-4.756,2.045-2.748-.237-1.22,2.9-2.143.231.356.6.847.694,1l2.659,3.15c2.062-.506,1.479-.839,3.1-1.647.123-.062.278-.126.4-.184s.291-.111.421-.167c1.864-.814,4.293-1.809,5.178-3.55-2.314-1.485-1.974.081-3.609-.989-1.054-.69-1.114-1.655-4.775-3.056l-2.5-1.63c1.97-1.362.912-.733,3.6-1.133-.319-1.18.559-.584-1.845-1.216,2.059-.6,1.6-.167,2.141-2.044-1.294-.621-2.35-.863-3.81-1.523-2.723-1.231-1.013-1.457-2.946-2.161-2.327-.849-1.736.773-4.237-1.272-2.824-2.31-2.757-6.6-8.752-5.21-3.023.7-5.105-.513-8.586,1.2-.121-.057-.265-.347-.316-.245l-1.565-.884c-4.636-1.487-11.984,3.5-15.6,5.988.01,5.708,1.256,2.647,4.608,4.724-.078,3.183-.956,3.565-3.742,4.644l-2.875,1.231c-1.722,1.241.733.775-2.527,1.944l1.237-5.117c-3.131,0-3.224-.026-4.609,1.716l-.819-2.342c-.063-.109-.17-.261-.235-.363-1.557-2.407-.269,1.051-.9-1.123l2.8-1.056-.239-5.435c3.341-2.037,8.259-1.974,11.867-4.145l.8-.582c-.642-.468-.239-.4-1.515-.737-2.121-.569-4.623,0-6.664.307-4.054.614-4.25.79-6,3.7-2,3.325-2.476,1.953-5.641,3.672-3.336,1.811-.712.081-2.2,2.623-.285.485-.573.872-.959,1.439a7.725,7.725,0,0,0-1.049,1.623c1.589-.488,2.057-1.115,3.556-.227a27.636,27.636,0,0,1-8.161,6l-.822-3.369c-4.517.4-12.733,3.934-16.526-.421,4.318.144,6.349,1.589,8.593-2.173l.489-.871c1.858.038,2.692.113,3.773-.681-.618-1.524-2.574-.634-3.758-3.794,2.715-5.292,4.819-4.075,6.552-6.5-.8-.56.027-.329-1.375-.565l-6.065.869c-2.2.925-2.376,2.952-4.441,4.473-.062-.1-.084-.421-.1-.345l-.329-1.394c-.382-1.133.07-.437-.919-1.618-2.766.125-1.034,1.652-5.807.593-4.013-.89-2.612-2.582-4.657-3.574-3.547-.406-4.585-.2-8.019-.946-8.442-1.825-4.473.338-12.872,4.071-2.1.932-4.539,1.734-6.136,2.667Z" transform="translate(-0.021 -326.365)" fill="#dcdcdc" fill-rule="evenodd"/>
    <path id="Path_11" data-name="Path 11" d="M12380.534,5046.212c1.373-4.41,5.1-6.552,4.634-9.241-3.084-1.261-3.182.754-8.3-1.712l-3.3-1.56c-1.155-.667-.439-1.563-2.73.112,1.071,1.292,1.153.938,1.638,3.061l-3.079.154c-.937-1.442.137-1.87-.589-3.157l-3.1-.194-1.456,2.381c1.732.832,2.05-.322,3.7.991a10.114,10.114,0,0,0-5.684,9.095l-4.827.123c-.756-2.024-1.2-2.029-2.085-3.756-3.067.433-3.8.949-6.141,2.923a9.033,9.033,0,0,0-3.536,5.453c-2.207-.042-1.1-.191-3.051.483-5.342,1.839-5.348,10.913-12.41,12.274-9.066,1.748-1.738,1.3-10.85,3.37-4.8,1.089-2.807,3.582-8.08,4.057-3.191.288-2.03,11.654-3.777,13.59-.079.089-.223.2-.308.281s-.247.2-.333.279l-.716.55c.885,2.9,1.571,3.128,1.9,6.461.344,3.479-.145,5.235-.118,8.317.03,3.569,1.2,3.006-.316,6.677-1.977,4.8-2.016,2.314-3.9,5.113a5.137,5.137,0,0,0,2.316,3.14c4.744,3.279,9.6-1.833,11.982-2.548,4.155-1.25,6.363-.126,10.078-.441,3.541-.3,4.149-2.774,7.07-4.271,4.437-2.274,23.823-7.488,26.056.448.049.174.086.319.133.5l.5,3.206c-.034,2.316-1.192,2.116,1.051,3.439,2.137-1.05,1.849-3.036,6.13-4.139-1.151,4.407-.833,1.775-3.991,5.731-1.138,1.424-.742.483-1.545,2.073,3.885.469,3.152-.495,5.438-.707l2.066.273c1.323,3.52-.855,2.36-.028,6.879,0,0,7.023,3.11,7.054,3.117,3.168.765,3.08-3.734,7.9.9,4.436-.961.731-2.6,13.362-4.9,7.9-12.774,17.046-18.086,19.361-22.444,3.171-5.961,5.646-7.311,6.093-14.458.082-1.322.706-4.243.689-4.83-.1-3.3-3.629-3.138-4.529-11.249-5.671-1.475-1.5-4.532-5.453-8.129l-5-3.773a93.64,93.64,0,0,0-1.32-16.044l-3.657-.811c-.206-3.506.622-9.364-2.428-11.227-3.521,1.845-4.733,16.529-6.968,20.825-2.91,5.6-4.769,1.83-7.6-.386s-6.083-3.5-7.95-6.289Z" transform="translate(-11552.562 -4724.847)" fill="#dcdcdc" fill-rule="evenodd"/>
    <path id="Path_12" data-name="Path 12" d="M3937.157,3.132c-11.809-2.5-4.732-.142-9.271-.142-5.853,0-2.163-.584-10.78.053-6.958.515-4.658-.68-9.925-1.681-1.949-.37-8.978-.636-11.355-.712-3.959-.126-5.519.482-10.642.17a47.066,47.066,0,0,0-10.718.858c-4.511.846-7.619.194-9.915.824-6.4,1.755-8.107.419-10.321,1.809.955,2.01,2.429,1.526,4.686,1.526L3856.9,8.181c-1.292-1.908-1.768-1.363-3.863-1.946-5.725-1.6-.9-3.216-9.238-.289-1.631.572-3.708.857-5.359,1.309l.738,2.5c1.685,3.962,5.738,2.071,9.156,1.963-.109.149-.247.2-.306.462a2.706,2.706,0,0,1-2.445,2.236c-2.321.465-.028.161-1.512-.1-1.016-.176-.211-.816-2.506-.554-2.994.343-.269.279-2.15,1.455-3.339,2.087-9.769-1.208-12.54.9,1.882,1.8,2.1,1.375,5.1,1.36-.458,2.452-.754.885-1.6,3.363,1.363.948,4.239.794,5.678.954,3.158.353,15.323.27,18.5-.439,2.668-.593,1.547.633,2.577-1.7-2.314-2.766-9.492-1.2-12.863-.65a7.565,7.565,0,0,1-2.166.249l-2.655-.781c1.134-2.338,1-1.662,4.989-1.435a20.782,20.782,0,0,0,6.649-.325c5.932-.995,5.952,2.144,12.943-.483.226-.677.42.056.058-.875-.26-.668-.247-.391-.569-.761,12.853-2.393,13.557-4.951,16.445-5.582,3.939-.861,5.589-.065,9.154-1.964,1.53-.816.1-.5,2.6-.943,3.226-.565,6.345-.487,9.5-1.651,1.752-.645,7.39-1.436,8.956-.741-3.349,2.432-9.719,2.546-14.724,2.744,1.421,1.229-.3.327,2.089,1.021a15.849,15.849,0,0,0,1.644.162c-3.464,1.66-4.737,1.761-9.285,2.38-2.706.369-8.325.98-10.087,1.958l1.072.781c4.722,3.695,5.2.4,7.737,1.58-2.189,1.311-7.166.56-9.845.607l3.012,2.229c3.6,1.9,9.741-.476,14.75.632.19.041,1.695.355,1.843.4a5.344,5.344,0,0,1,3.357,2.581c3.564,4.871.448,6.1-2.361,8.881l4.671.241-1.817,2.094c-1.592.888-4.021,1.463-4.25,3.78a3.908,3.908,0,0,0,4.026.793l1.893-1.206c.978-.749-.169-.56,1.638-1.2-.082,6.3-3.006,2.977-6.664,5.637-.723.527-2.351,1.888-2.563,2.918-.784,3.8,1-1.126-.05,1.275-.412.946-.169-.188-1.245,1.635.619,3.136.966,1.043,1.2,4.148.179,2.38-.228,2.644.434,5.085.92,3.4,2.123,5.1,3.325,7.7,7.093-.587,5.969,3.2,9.352,2.86,2.455-.245,5.654-5.4,6.705-7.335,2.072-3.817,4.625-2.249,6.852-6.788.9-1.842,1.536-2.919,3.366-3.521,2.065-.679,4.4-.324,6.364-.908,3.1-.921,6.326-1.656,8.72-3.581,6.879-5.529,4.241-1.921,9.59-3.452,3.478-.995,8.33-1.146,11.509-2.555l7.969-3.881c.121-.071.281-.15.4-.213l.884-.375a4.439,4.439,0,0,0,.46-.175c-.006-2.682.219-2.118-1.228-3.622,1.5-1.137,2.069-1.681,2.207-3.914,6.965-.538,2.084-1.791,7.376-2.856-.028-1.278-.9-.212-.318-2.672a2.062,2.062,0,0,0,.064-2.393c-.076-.165-.2-.319-.284-.473l-.728-1c4.848.184,1.682.157,3.982,1.381,1.163-1.912.664-.632,1.623-2.159-2.539-2.4-1.944-1.746-4.82-2.833a1.992,1.992,0,0,1-.48-.214c4.78-2.826,9.445-4.435,14.91-6.394,2.026-.725,3.7-.6,5.551-1.187-1.741-2.253-15.168-.245-18.713.147.712-4.047.306-.723,1.58-2.221,0,0,2.076-.065-.847-.626L3959.593,0a19.614,19.614,0,0,0-6.523.816c-3.435,1.242-2.574,1.181-6.01.169-1.834-.541-8.072-.827-9.552,1.4Z" transform="translate(-3593.236 0.005)" fill="#dcdcdc" fill-rule="evenodd"/>
    <path id="Path_13" data-name="Path 13" d="M13371.983,4444.744c.5,2.885.77,1.241,3,2.765,1.905,1.3.907,1.974,3.65,2.261-1.639,3.022-1.031.385-.219,6.135,2.99-.566.5-.455,2.644-1.4,5.42,3.428,15.7,4.233,14.168,11.5-1.167,2.34-.461.56-1.639,2.22-1.277,1.8-.727.673-1.284,2.753,2.635-.133,4.069-.849,7.488-1.08,1.284,4.187,3.418,4.52,8.764,3.808.44-.666.906-1.427,1.345-2.182,1.239-2.135-.386-1.134,1.866-2.26,6.589-3.276,7.77,6.185,12.621,7.949a41.509,41.509,0,0,0,6.713,1.373c-.319-1.79-3.667-5.193-4.866-6.178l-4.976-5.814c1.034-1.194,1.7-.969,2.562-2.361-.721-1.531-3.664-3.364-5.557-3.9-.28-2.254.552-1.686-.681-2.927-1.766-1.78-13.874-7.144-16.348-7.619-4.364-.839-4.177-2.34-7.537-2.919-3.9,1.745-4.246,4.949-8.267,5.823-1.185-1.07-.29-.105-1.178-1.345l-.485-.732c-.968-1.776-.966-4.065-1.541-6.19-1.582-.624-3.27-1.756-5.351-1.242l-4.9,1.565Z" transform="translate(-12555.604 -4171.793)" fill="#dcdcdc" fill-rule="evenodd"/>
    <path id="Path_14" data-name="Path 14" d="M12289.094,4049.955l-4.217-1.729c-2.754,5.482-2.584,6.358.738,12.442a14.928,14.928,0,0,1,1.165,4.852c.938.059,2.71-.043,3.388.111,1.631.373,1.469.922,2.468,1.911,1.377-.484,3.82-2.038,6.655.058,1.541,1.139-.519-.866.865.9l.746,1.2a9.229,9.229,0,0,1,2.591-.985c3.1-.427.184.454,1.337.281a28.147,28.147,0,0,0,1.331-5.448c.791-4.384.141-2.03,2.438-4.6,3.169-3.541-1.538-5.136,4.5-6.932a1.912,1.912,0,0,0,.44-.144c-.233-.451-4.239-5.194-4.148-8.114.089-2.94.387-1.816,2.963-4.641,2.4-2.637,1.6.656,1.863-2.6-2.213-1.244-2.089.187-3.984-1.663-2.267-2.214.039-2.466-3.433-3.312-2.143,1.329-2.389,3.646-3.729,5.442-1.609,2.153-2.992.576-5.292,3.5-1.644,2.091-1.293,3.4-4.275,4.464-6.138,2.192-2.055.813-4.415,5Z" transform="translate(-11533.064 -3785.418)" fill="#dcdcdc" fill-rule="evenodd"/>
    <path id="Path_15" data-name="Path 15" d="M8982.108,5100.721c-2.925,1.578.487.678-3.432,4.784-2.047,2.146-.332-.225-1.41,2.638-2.986,7.933-9.151,3.052-11.813,10.641-1.971,5.615,2.174,6.912-1.644,14.4-1.926,3.779-1.879,2.008-1.273,6.552.542,4.058.086,3.979,2.4,6.393,8.7,9.057,12.816-14.226,14.207-17.244,4.961-10.764,1.715-6.265,3.688-13.393.674-2.429,1.755-1.543,1.046-7.74C8983.611,5105.391,8983.233,5102.547,8982.108,5100.721Z" transform="translate(-8415.014 -4789.313)" fill="#dcdcdc" fill-rule="evenodd"/>
    <path id="Path_16" data-name="Path 16" d="M11618.622,4143.313l3.692-.093-.125,1.787c-1.124,2.871-.174-1.268-1.127,1.532,1.051.452.851.143,1.561.377,3.122,1.025,2.077,1.576,5.723,2.585l18.413,3.049c4.137,1,1-.084,3.4-.042,1.23.021,1.8,1.926,2.381-1.246l-3.822-1.429c-2.3-.806-2.344.114-4.227-.933,1.26-2.824,1.949.738,3.407-2.314-2.781,0-4.006.251-6.736-.52-6.119-1.729-1,.017-5.683.484a7.094,7.094,0,0,1-3.151-.429c-3.863-1.716,2.446-.56-8.719-2.994-.779-10.871,1.226-8.956,2.911-10.169l-1.354-2.6c-1.331-2.054-.018-1.336-2.037-2.185-1.128.657-.22-.117-.954.9-2.524,3.479,1.2-2.146-.462.742l-.356.823c-2.339-2.266-.12-1.469-3.407-4.343-1.423-1.245-1.143-.377-1.378-5.14-5.605-3.479-4.417-3.951-6.9-5.443l-2.961-1.763c-1.035-1.008-.826-1.256-1.828-2.262-3.192-3.206-1.39.893-6.539-7-4.187-.168-5.011-1.259-7.667-1.233.377,4.953,4.777,5.678,7.043,9.432,2.755,4.558,2.46,1.763,3.936,4.362,1.944,3.425-.451,2.151,2.959,5.94,1.648,1.833,1.861,2.627,2.8,5.4,2.353,6.979,9.167,10.447,11.213,14.731Z" transform="translate(-10883.046 -3852.923)" fill="#dcdcdc" fill-rule="evenodd"/>
    <path id="Path_17" data-name="Path 17" d="M6657.242,1135.487c.115.437.651,2.529.8,2.835.053.108.153.257.211.355l.436.585c2.31,3.206,1.816.747,1.259,5.247l3.762-.112c.444,3.63,3.49,4.811-2.9,4.581.14,1.808.53,1.773.415,3.413l-2.944,1.729,3.342,1.439c-1.455,1.471-2.84,2.321-3.976,4.352,2.988-.413,5.287-1.91,8.516-1.919a23.584,23.584,0,0,0,8.266-.944l.286-.883c1.426-4.955,2.416-.881,2.342-5.065-1.333-.958-1.638-.734-3.774-.807-.433-4.116-.661-3.292-2.812-5.5-1.865-1.91-.748-1.815-2.615-3.91-.093-.1-.223-.224-.316-.32l-.679-.633c-.079-.073-.243-.2-.357-.315,1.219-2.6,1.732-1.458,1.377-4.723l-3.012-.578a8.86,8.86,0,0,0,.693-1.121c.025-.086.091-.285.108-.375l-.095-1.04c-2.661.111-3.317-.115-4.9,1.182-1.008.824-.506.954-2.629,2.137l-.8.387Z" transform="translate(-6250.808 -1062.683)" fill="#dcdcdc" fill-rule="evenodd"/>
    <path id="Path_18" data-name="Path 18" d="M13075.661,2071.086l-1.669-.312a1.26,1.26,0,0,0-.378.128c.563,6.249,5.7,6.864.136,13.561-3.7.138-.4.037-2.671-.894l-.918,5.765-8.531.259c-.74,1.817-.2.993-1.521,2.506-1.846,2.114-1.006.089-1.868,2.682,3.159,1.3,4.28.139,4.449.039.1-.062.236-.178.342-.242a10.51,10.51,0,0,1,6.557-1.683.8.8,0,0,1,.143.382c.283,2.352,2.239,2.935,3.4,3.283.431-.493,1.284-.7,1.967-3.608l5.424-1.015c.133-.055.276-.139.407-.195s.277-.139.408-.2.282-.13.414-.185l2.531-.946c.167-2.221-.9-3.557-1.572-6.031l-.991-4.887c.658-3.576-3.269-8.826-6.226-10.584-.408.832.139,1.926.169,2.177Z" transform="translate(-12261.017 -1942.6)" fill="#dcdcdc" fill-rule="evenodd"/>
  </g>
</svg>
